<svg viewBox="0 0 450 720" xmlns="http://www.w3.org/2000/svg">
  <defs>
    <clipPath id="front-clip">
      <rect x="0" y="0" width="410" height="667"/>
    </clipPath>
    <marker id="arr" viewBox="0 0 10 10" refX="5" refY="5" markerWidth="5" markerHeight="5" orient="auto-start-reverse">
      <path d="M 0 0 L 10 5 L 0 10 z" fill="#0B7285"/>
    </marker>
  </defs>
  
  <!-- Hoodie front (clipped) -->
  <g clip-path="url(#front-clip)">

  <defs
     id="defs1" />
  <sodipodi:namedview
     id="namedview1"
     pagecolor="#ffffff"
     bordercolor="#000000"
     borderopacity="0.25"
     inkscape:showpageshadow="2"
     inkscape:pageopacity="0.0"
     inkscape:pagecheckerboard="0"
     inkscape:deskcolor="#d1d1d1">
    <inkscape:page
       x="0"
       y="0"
       inkscape:label="1"
       id="page1"
       width="800"
       height="666.66669"
       margin="0"
       bleed="0" />
  </sodipodi:namedview>
  <g
     id="g1"
     inkscape:groupmode="layer"
     inkscape:label="1">
    <g
       id="group-R5">
      <path
         id="path2"
         d="M 6000,0 H 0 V 5000 H 6000 V 0"
         style="fill:#ffffff;fill-opacity:1;fill-rule:nonzero;stroke:none"
         transform="matrix(0.13333333,0,0,-0.13333333,0,666.66667)" />
      <path
         id="path3"
         d="M 3392.88,1127.56 3441,992.359 c 0,0 174.61,-30.687 283.83,50.511 l -16.76,131.55 c 0,0 -101.27,-78.65 -315.19,-46.86"
         style="fill:#eceff9;fill-opacity:1;fill-rule:nonzero;stroke:none"
         transform="matrix(0.13333333,0,0,-0.13333333,0,666.66667)" />
      <path
         id="path4"
         d="m 5437.37,1127.56 -48.12,-135.201 c 0,0 -174.62,-30.687 -283.83,50.511 l 16.76,131.55 c 0,0 101.26,-78.65 315.19,-46.86"
         style="fill:#eceff9;fill-opacity:1;fill-rule:nonzero;stroke:none"
         transform="matrix(0.13333333,0,0,-0.13333333,0,666.66667)" />
      <path
         id="path5"
         d="m 3701.49,1226.09 c 0,0 668.96,-169.28 1427.12,-1.21 l -29.89,-234.571 c 0,0 -399.51,-52.977 -683.29,-53.821 -324.02,-0.957 -683.9,53.821 -683.9,53.821 l -30.04,235.781"
         style="fill:#eceff9;fill-opacity:1;fill-rule:nonzero;stroke:none"
         transform="matrix(0.13333333,0,0,-0.13333333,0,666.66667)" />
      <path
         id="path6"
         d="m 4885,3959.34 c 0,0 -166,97.8 -484.07,104.18 0,0 -284.38,2.25 -483.89,-104.18 l -55.57,-61.5 c 1.59,2.28 272.06,127.77 539.66,113.96 0,0 355.03,-5.05 545.51,-121.45 l -61.64,68.99"
         style="fill:#eceff9;fill-opacity:1;fill-rule:nonzero;stroke:none"
         transform="matrix(0.13333333,0,0,-0.13333333,0,666.66667)" />
      <path
         id="path7"
         d="m 3647.81,2557.57 c 0,0 -78.07,-883.84 -90.5,-1013.7 -12.44,-129.86 -26.23,-284.06 142.63,-317.78 0,0 -136.63,92.17 -100.5,283.12 0,0 24.49,468.95 25.81,506.41 l 22.56,541.95"
         style="fill:#d5d8e1;fill-opacity:1;fill-rule:nonzero;stroke:none"
         transform="matrix(0.13333333,0,0,-0.13333333,0,666.66667)" />
      <path
         id="path8"
         d="m 5153.18,2557.57 c 0,0 78.07,-883.84 90.51,-1013.7 12.44,-129.86 26.22,-284.06 -142.64,-317.78 0,0 136.63,92.17 100.51,283.12 0,0 -24.49,468.95 -25.81,506.41 l -22.57,541.95"
         style="fill:#d5d8e1;fill-opacity:1;fill-rule:nonzero;stroke:none"
         transform="matrix(0.13333333,0,0,-0.13333333,0,666.66667)" />
      <path
         id="path9"
         d="m 4902.98,3608.25 c -234.4,-395.45 -502.05,-366.76 -502.05,-366.76 0,0 -267.65,-28.69 -502.05,366.76 l -13.44,10.85 c 0,0 133.57,-404.59 515.49,-414.82 381.91,10.23 515.48,414.82 515.48,414.82 l -13.43,-10.85"
         style="fill:#d5d8e1;fill-opacity:1;fill-rule:nonzero;stroke:none"
         transform="matrix(0.13333333,0,0,-0.13333333,0,666.66667)" />
      <path
         id="path10"
         d="m 3413.78,3296.29 c 0,0 175.84,-299.18 229.67,-738.72"
         style="fill:none;stroke:#040606;stroke-width:4.922;stroke-linecap:round;stroke-linejoin:round;stroke-miterlimit:10;stroke-dasharray:20, 20;stroke-dashoffset:0;stroke-opacity:1"
         transform="matrix(0.13333333,0,0,-0.13333333,0,666.66667)" />
      <path
         id="path11"
         d="m 5387.46,3296.29 c 0,0 -175.84,-299.18 -229.67,-738.72"
         style="fill:none;stroke:#040606;stroke-width:4.922;stroke-linecap:round;stroke-linejoin:round;stroke-miterlimit:10;stroke-dasharray:20, 20;stroke-dashoffset:0;stroke-opacity:1"
         transform="matrix(0.13333333,0,0,-0.13333333,0,666.66667)" />
      <path
         id="path12"
         d="m 3653.45,2972.81 c 0,-288.52 -35.43,-1313.53 -55.68,-1498.29 -20.25,-184.75 102.69,-251.33 134.84,-258.15 0,0 310.75,-63.88 682.21,-63.88"
         style="fill:none;stroke:#040606;stroke-width:10;stroke-linecap:round;stroke-linejoin:round;stroke-miterlimit:10;stroke-dasharray:none;stroke-opacity:1"
         transform="matrix(0.13333333,0,0,-0.13333333,0,666.66667)" />
      <path
         id="path13"
         d="m 3708.07,1174.42 c -73.82,-62.98 -264.33,-54.42 -264.33,-54.42 -105.9,10.59 -181.87,-1.51 -205.26,809.4 -18.83,652.66 97.5,1122.13 161.18,1326.84 23.92,76.9 72.42,143.71 138,190.45 97.15,69.23 192.19,121.69 256.84,154.39 25.43,12.87 53.47,19.63 81.98,19.63 v 0 c 9.44,0 18.14,-4.97 22.86,-13.15 38.56,-66.86 226.53,-366.07 501.59,-366.07"
         style="fill:none;stroke:#040606;stroke-width:10;stroke-linecap:round;stroke-linejoin:round;stroke-miterlimit:10;stroke-dasharray:none;stroke-opacity:1"
         transform="matrix(0.13333333,0,0,-0.13333333,0,666.66667)" />
      <path
         id="path14"
         d="m 3700.99,1230 30.54,-239.691 c 0,0 303.47,-53.821 683.29,-53.821"
         style="fill:none;stroke:#040606;stroke-width:10;stroke-linecap:round;stroke-linejoin:round;stroke-miterlimit:10;stroke-dasharray:none;stroke-opacity:1"
         transform="matrix(0.13333333,0,0,-0.13333333,0,666.66667)" />
      <path
         id="path15"
         d="M 3392.88,1127.56 3441,992.359 c 0,0 154.53,-32.57 283.83,50.511"
         style="fill:none;stroke:#040606;stroke-width:10;stroke-linecap:round;stroke-linejoin:round;stroke-miterlimit:10;stroke-dasharray:none;stroke-opacity:1"
         transform="matrix(0.13333333,0,0,-0.13333333,0,666.66667)" />
      <path
         id="path16"
         d="m 3438.46,3341.11 c 0,0 177.77,-313.72 210.9,-627.44"
         style="fill:none;stroke:#040606;stroke-width:10;stroke-linecap:round;stroke-linejoin:round;stroke-miterlimit:10;stroke-dasharray:none;stroke-opacity:1"
         transform="matrix(0.13333333,0,0,-0.13333333,0,666.66667)" />
      <path
         id="path17"
         d="m 3835.29,3619.1 c -65.87,77.03 16.68,121.08 16.68,121.08 -78.73,101.9 65.07,219.16 65.07,219.16 0,0 168.71,104.18 483.89,104.18"
         style="fill:none;stroke:#040606;stroke-width:10;stroke-linecap:round;stroke-linejoin:round;stroke-miterlimit:10;stroke-dasharray:none;stroke-opacity:1"
         transform="matrix(0.13333333,0,0,-0.13333333,0,666.66667)" />
      <path
         id="path18"
         d="m 5148.59,2972.81 c 0,-288.52 35.43,-1313.53 55.68,-1498.29 20.25,-184.75 -102.68,-251.33 -134.84,-258.15 0,0 -310.74,-63.88 -682.21,-63.88"
         style="fill:none;stroke:#040606;stroke-width:10;stroke-linecap:round;stroke-linejoin:round;stroke-miterlimit:10;stroke-dasharray:none;stroke-opacity:1"
         transform="matrix(0.13333333,0,0,-0.13333333,0,666.66667)" />
      <path
         id="path19"
         d="m 5140.51,1265.33 c 0,0 -335.31,-80.81 -739.49,-82.81 l -4.43,0.02 c -402.19,2.57 -735.06,82.79 -735.06,82.79"
         style="fill:none;stroke:#040606;stroke-width:4.922;stroke-linecap:round;stroke-linejoin:round;stroke-miterlimit:10;stroke-dasharray:20, 20;stroke-dashoffset:0;stroke-opacity:1"
         transform="matrix(0.13333333,0,0,-0.13333333,0,666.66667)" />
      <path
         id="path20"
         d="m 5093.97,1174.42 c 73.82,-62.98 264.33,-54.42 264.33,-54.42 105.9,10.59 181.87,-1.51 205.26,809.4 18.83,652.66 -97.5,1122.13 -161.18,1326.84 -23.92,76.9 -72.42,143.71 -138,190.45 -97.15,69.23 -192.19,121.69 -256.83,154.39 -25.44,12.87 -53.48,19.63 -81.98,19.63 v 0 c -9.44,0 -18.15,-4.97 -22.87,-13.15 -38.56,-66.86 -226.53,-366.07 -501.59,-366.07"
         style="fill:none;stroke:#040606;stroke-width:10;stroke-linecap:round;stroke-linejoin:round;stroke-miterlimit:10;stroke-dasharray:none;stroke-opacity:1"
         transform="matrix(0.13333333,0,0,-0.13333333,0,666.66667)" />
      <path
         id="path21"
         d="m 5101.05,1230 -30.53,-239.691 c 0,0 -303.48,-53.821 -683.3,-53.821"
         style="fill:none;stroke:#040606;stroke-width:10;stroke-linecap:round;stroke-linejoin:round;stroke-miterlimit:10;stroke-dasharray:none;stroke-opacity:1"
         transform="matrix(0.13333333,0,0,-0.13333333,0,666.66667)" />
      <path
         id="path22"
         d="m 5409.16,1127.56 -48.12,-135.201 c 0,0 -154.53,-32.57 -283.83,50.511"
         style="fill:none;stroke:#040606;stroke-width:10;stroke-linecap:round;stroke-linejoin:round;stroke-miterlimit:10;stroke-dasharray:none;stroke-opacity:1"
         transform="matrix(0.13333333,0,0,-0.13333333,0,666.66667)" />
      <path
         id="path23"
         d="m 5363.58,3341.11 c 0,0 -177.77,-313.72 -210.9,-627.44"
         style="fill:none;stroke:#040606;stroke-width:10;stroke-linecap:round;stroke-linejoin:round;stroke-miterlimit:10;stroke-dasharray:none;stroke-opacity:1"
         transform="matrix(0.13333333,0,0,-0.13333333,0,666.66667)" />
      <path
         id="path24"
         d="m 4966.75,3619.1 c 65.87,77.03 -16.68,121.08 -16.68,121.08 78.73,101.9 -65.07,219.16 -65.07,219.16 0,0 -168.7,104.18 -483.89,104.18"
         style="fill:none;stroke:#040606;stroke-width:10;stroke-linecap:round;stroke-linejoin:round;stroke-miterlimit:10;stroke-dasharray:none;stroke-opacity:1"
         transform="matrix(0.13333333,0,0,-0.13333333,0,666.66667)" />
      <path
         id="path25"
         d="m 4946.64,3888.6 c 0,0 -190.19,123.2 -545.51,123.2 h -0.21 c -355.32,0 -545.51,-123.2 -545.51,-123.2"
         style="fill:none;stroke:#040606;stroke-width:10;stroke-linecap:round;stroke-linejoin:round;stroke-miterlimit:10;stroke-dasharray:none;stroke-opacity:1"
         transform="matrix(0.13333333,0,0,-0.13333333,0,666.66667)" />
      <path
         id="path26"
         d="m 4954.97,3854.37 c 0,0 -193.09,127.99 -553.84,127.99 h -0.21 c -360.75,0 -553.85,-127.99 -553.85,-127.99"
         style="fill:none;stroke:#040606;stroke-width:4.922;stroke-linecap:round;stroke-linejoin:round;stroke-miterlimit:10;stroke-dasharray:20, 20;stroke-dashoffset:0;stroke-opacity:1"
         transform="matrix(0.13333333,0,0,-0.13333333,0,666.66667)" />
      <path
         id="path27"
         d="m 3328.63,1182.63 c 0,0 130.09,-74.81 376.57,14.52"
         style="fill:none;stroke:#040606;stroke-width:4.922;stroke-linecap:round;stroke-linejoin:round;stroke-miterlimit:10;stroke-dasharray:20, 20;stroke-dashoffset:0;stroke-opacity:1"
         transform="matrix(0.13333333,0,0,-0.13333333,0,666.66667)" />
      <path
         id="path28"
         d="m 5473.17,1182.63 c 0,0 -130.1,-74.81 -376.57,14.52"
         style="fill:none;stroke:#040606;stroke-width:4.922;stroke-linecap:round;stroke-linejoin:round;stroke-miterlimit:10;stroke-dasharray:20, 20;stroke-dashoffset:0;stroke-opacity:1"
         transform="matrix(0.13333333,0,0,-0.13333333,0,666.66667)" />
      <path
         id="path29"
         d="M 4400.93,4063.52 V 3241.49"
         style="fill:none;stroke:#040606;stroke-width:10;stroke-linecap:round;stroke-linejoin:round;stroke-miterlimit:10;stroke-dasharray:none;stroke-opacity:1"
         transform="matrix(0.13333333,0,0,-0.13333333,0,666.66667)" />
      <path
         id="path30"
         d="m 3851.97,3740.18 c 0,0 103.39,3.99 161.16,-131.93"
         style="fill:none;stroke:#040606;stroke-width:10;stroke-linecap:round;stroke-linejoin:round;stroke-miterlimit:10;stroke-dasharray:none;stroke-opacity:1"
         transform="matrix(0.13333333,0,0,-0.13333333,0,666.66667)" />
      <path
         id="path31"
         d="m 4951.59,3740.18 c 0,0 -103.39,3.99 -161.15,-131.93"
         style="fill:none;stroke:#040606;stroke-width:10;stroke-linecap:round;stroke-linejoin:round;stroke-miterlimit:10;stroke-dasharray:none;stroke-opacity:1"
         transform="matrix(0.13333333,0,0,-0.13333333,0,666.66667)" />
      <path
         id="path32"
         d="m 1119.75,3960.94 -55.34,-57.66 c 359.58,-104.21 490.95,-410.35 490.95,-410.35 l 57.42,-2.32 c -90.88,343.85 -493.03,470.33 -493.03,470.33"
         style="fill:#eceff9;fill-opacity:1;fill-rule:nonzero;stroke:none"
         transform="matrix(0.13333333,0,0,-0.13333333,0,666.66667)" />
      <path
         id="path33"
         d="m 2106.41,3960.94 55.34,-57.66 C 1802.17,3799.07 1670.8,3492.93 1670.8,3492.93 l -57.42,-2.32 c 90.88,343.85 493.03,470.33 493.03,470.33"
         style="fill:#eceff9;fill-opacity:1;fill-rule:nonzero;stroke:none"
         transform="matrix(0.13333333,0,0,-0.13333333,0,666.66667)" />
      <path
         id="path34"
         d="m 1119.75,3960.94 c 0,0 101.24,102.68 493.63,100.45 392.4,-2.23 493.03,-100.45 493.03,-100.45 0,0 -69.9,-19.67 -143.85,-65.72 0,0 -341.54,-19.41 -347.78,-22.77 -6.23,-3.37 -351.18,24.21 -351.18,24.21 l -143.85,64.28"
         style="fill:#eceff9;fill-opacity:1;fill-rule:nonzero;stroke:none"
         transform="matrix(0.13333333,0,0,-0.13333333,0,666.66667)" />
      <path
         id="path35"
         d="m 1962.56,3895.22 c -294.69,-164.34 -349.78,-404.61 -349.78,-404.61 -72.18,270.64 -349.18,406.05 -349.18,406.05 0,0 165.19,45.24 349.18,46.48 188.67,1.27 349.78,-47.92 349.78,-47.92"
         style="fill:#d5d8e1;fill-opacity:1;fill-rule:nonzero;stroke:none"
         transform="matrix(0.13333333,0,0,-0.13333333,0,666.66667)" />
      <path
         id="path36"
         d="m 590.836,1127.56 48.121,-135.201 c 0,0 174.613,-30.687 283.828,50.511 l -16.758,131.55 c 0,0 -101.265,-78.65 -315.191,-46.86"
         style="fill:#eceff9;fill-opacity:1;fill-rule:nonzero;stroke:none"
         transform="matrix(0.13333333,0,0,-0.13333333,0,666.66667)" />
      <path
         id="path37"
         d="M 2635.33,1127.56 2587.2,992.359 c 0,0 -174.61,-30.687 -283.83,50.511 l 16.76,131.55 c 0,0 101.27,-78.65 315.2,-46.86"
         style="fill:#eceff9;fill-opacity:1;fill-rule:nonzero;stroke:none"
         transform="matrix(0.13333333,0,0,-0.13333333,0,666.66667)" />
      <path
         id="path38"
         d="m 899.445,1226.09 c 0,0 668.965,-169.28 1427.115,-1.21 l -29.88,-234.571 c 0,0 -399.51,-52.977 -683.3,-53.821 -324.01,-0.957 -683.896,53.821 -683.896,53.821 l -30.039,235.781"
         style="fill:#eceff9;fill-opacity:1;fill-rule:nonzero;stroke:none"
         transform="matrix(0.13333333,0,0,-0.13333333,0,666.66667)" />
      <path
         id="path39"
         d="m 1229.95,3639.83 c 0,0 70.95,-105.9 228.38,-125.75 0,0 -85.48,115.96 -228.38,125.75"
         style="fill:#d5d8e1;fill-opacity:1;fill-rule:nonzero;stroke:none"
         transform="matrix(0.13333333,0,0,-0.13333333,0,666.66667)" />
      <path
         id="path40"
         d="m 1998.95,3639.83 c 0,0 -70.95,-105.9 -228.38,-125.75 0,0 85.48,115.96 228.38,125.75"
         style="fill:#d5d8e1;fill-opacity:1;fill-rule:nonzero;stroke:none"
         transform="matrix(0.13333333,0,0,-0.13333333,0,666.66667)" />
      <path
         id="path41"
         d="m 847.32,2557.57 c 0,0 -78.07,-883.84 -90.507,-1013.7 -12.438,-129.86 -26.227,-284.06 142.632,-317.78 0,0 -136.632,92.17 -100.504,283.12 0,0 24.493,468.95 25.813,506.41 l 22.566,541.95"
         style="fill:#d5d8e1;fill-opacity:1;fill-rule:nonzero;stroke:none"
         transform="matrix(0.13333333,0,0,-0.13333333,0,666.66667)" />
      <path
         id="path42"
         d="m 2378.69,2557.57 c 0,0 78.07,-883.84 90.51,-1013.7 12.43,-129.86 26.22,-284.06 -142.64,-317.78 0,0 136.63,92.17 100.51,283.12 0,0 -24.49,468.95 -25.81,506.41 l -22.57,541.95"
         style="fill:#d5d8e1;fill-opacity:1;fill-rule:nonzero;stroke:none"
         transform="matrix(0.13333333,0,0,-0.13333333,0,666.66667)" />
      <path
         id="path43"
         d="m 851.406,2972.81 c 0,-288.52 -35.429,-1313.53 -55.676,-1498.29 -20.25,-184.75 102.684,-251.33 134.84,-258.15 0,0 310.74,-63.88 682.21,-63.88"
         style="fill:none;stroke:#040606;stroke-width:10;stroke-linecap:round;stroke-linejoin:round;stroke-miterlimit:10;stroke-dasharray:none;stroke-opacity:1"
         transform="matrix(0.13333333,0,0,-0.13333333,0,666.66667)" />
      <path
         id="path44"
         d="m 1032.4,3620.71 c -65.873,77.03 16.68,121.08 16.68,121.08 -87.389,90.98 70.67,219.15 70.67,219.15 433.2,-156.77 493.03,-470.33 493.03,-470.33 -273.2,0 -388.47,149.46 -388.47,149.46 h -106.38 c -29.62,0 -58.78,-6.62 -85.53,-19.36 -60.666,-28.9 -178.232,-89.29 -298.759,-175.44 C 668.547,3398.75 621.055,3331.69 597.32,3255.29 533.574,3050.08 417.637,2581.05 436.438,1929.4 c 23.39,-810.91 99.363,-798.81 205.265,-809.4 0,0 190.504,-8.56 264.324,54.42"
         style="fill:none;stroke:#040606;stroke-width:10;stroke-linecap:round;stroke-linejoin:round;stroke-miterlimit:10;stroke-dasharray:none;stroke-opacity:1"
         transform="matrix(0.13333333,0,0,-0.13333333,0,666.66667)" />
      <path
         id="path45"
         d="m 1064.41,3903.28 c 0,0 348.62,-92.64 490.95,-410.35"
         style="fill:none;stroke:#040606;stroke-width:10;stroke-linecap:round;stroke-linejoin:round;stroke-miterlimit:10;stroke-dasharray:none;stroke-opacity:1"
         transform="matrix(0.13333333,0,0,-0.13333333,0,666.66667)" />
      <path
         id="path46"
         d="m 1049.08,3872.45 c 0,0 3.36,-0.9 9.56,-2.81"
         style="fill:none;stroke:#040606;stroke-width:4.922;stroke-linecap:round;stroke-linejoin:round;stroke-miterlimit:4;stroke-dasharray:none;stroke-opacity:1"
         transform="matrix(0.13333333,0,0,-0.13333333,0,666.66667)" />
      <path
         id="path47"
         d="m 1078.23,3863.19 c 80.53,-27.98 308.42,-123.89 434.56,-347.16"
         style="fill:none;stroke:#040606;stroke-width:4.922;stroke-linecap:round;stroke-linejoin:round;stroke-miterlimit:4;stroke-dasharray:20.6519, 20.6519;stroke-dashoffset:0;stroke-opacity:1"
         transform="matrix(0.13333333,0,0,-0.13333333,0,666.66667)" />
      <path
         id="path48"
         d="m 1517.85,3506.91 c 1.59,-2.93 3.16,-5.87 4.72,-8.84"
         style="fill:none;stroke:#040606;stroke-width:4.922;stroke-linecap:round;stroke-linejoin:round;stroke-miterlimit:4;stroke-dasharray:none;stroke-opacity:1"
         transform="matrix(0.13333333,0,0,-0.13333333,0,666.66667)" />
      <path
         id="path49"
         d="m 2177.08,3872.45 c 0,0 -3.36,-0.9 -9.56,-2.81"
         style="fill:none;stroke:#040606;stroke-width:4.922;stroke-linecap:round;stroke-linejoin:round;stroke-miterlimit:4;stroke-dasharray:none;stroke-opacity:1"
         transform="matrix(0.13333333,0,0,-0.13333333,0,666.66667)" />
      <path
         id="path50"
         d="M 2147.93,3863.19 C 2067.4,3835.21 1839.51,3739.3 1713.37,3516.03"
         style="fill:none;stroke:#040606;stroke-width:4.922;stroke-linecap:round;stroke-linejoin:round;stroke-miterlimit:4;stroke-dasharray:20.6519, 20.6519;stroke-dashoffset:0;stroke-opacity:1"
         transform="matrix(0.13333333,0,0,-0.13333333,0,666.66667)" />
      <path
         id="path51"
         d="m 1708.31,3506.91 c -1.59,-2.93 -3.16,-5.87 -4.71,-8.84"
         style="fill:none;stroke:#040606;stroke-width:4.922;stroke-linecap:round;stroke-linejoin:round;stroke-miterlimit:4;stroke-dasharray:none;stroke-opacity:1"
         transform="matrix(0.13333333,0,0,-0.13333333,0,666.66667)" />
      <path
         id="path52"
         d="m 1049.08,3741.79 c 0,0 66.06,-43.29 131.82,-61.22"
         style="fill:none;stroke:#040606;stroke-width:10;stroke-linecap:round;stroke-linejoin:round;stroke-miterlimit:10;stroke-dasharray:none;stroke-opacity:1"
         transform="matrix(0.13333333,0,0,-0.13333333,0,666.66667)" />
      <path
         id="path53"
         d="m 1224.31,3640.07 c 0,0 135,0 239.78,-133.12"
         style="fill:none;stroke:#040606;stroke-width:10;stroke-linecap:round;stroke-linejoin:round;stroke-miterlimit:10;stroke-dasharray:none;stroke-opacity:1"
         transform="matrix(0.13333333,0,0,-0.13333333,0,666.66667)" />
      <path
         id="path54"
         d="m 1119.75,3960.94 c 0,0 83.09,100.45 493.03,100.45"
         style="fill:none;stroke:#040606;stroke-width:10;stroke-linecap:round;stroke-linejoin:round;stroke-miterlimit:10;stroke-dasharray:none;stroke-opacity:1"
         transform="matrix(0.13333333,0,0,-0.13333333,0,666.66667)" />
      <path
         id="path55"
         d="m 898.945,1230 30.539,-239.691 c 0,0 303.476,-53.821 683.296,-53.821"
         style="fill:none;stroke:#040606;stroke-width:10;stroke-linecap:round;stroke-linejoin:round;stroke-miterlimit:10;stroke-dasharray:none;stroke-opacity:1"
         transform="matrix(0.13333333,0,0,-0.13333333,0,666.66667)" />
      <path
         id="path56"
         d="m 590.836,1127.56 48.121,-135.201 c 0,0 154.531,-32.57 283.828,50.511"
         style="fill:none;stroke:#040606;stroke-width:10;stroke-linecap:round;stroke-linejoin:round;stroke-miterlimit:10;stroke-dasharray:none;stroke-opacity:1"
         transform="matrix(0.13333333,0,0,-0.13333333,0,666.66667)" />
      <path
         id="path57"
         d="m 636.418,3341.11 c 0,0 177.773,-313.72 210.902,-627.44"
         style="fill:none;stroke:#040606;stroke-width:10;stroke-linecap:round;stroke-linejoin:round;stroke-miterlimit:10;stroke-dasharray:none;stroke-opacity:1"
         transform="matrix(0.13333333,0,0,-0.13333333,0,666.66667)" />
      <path
         id="path58"
         d="m 617.652,3296.29 c 0,0 175.836,-299.18 229.668,-738.72"
         style="fill:none;stroke:#040606;stroke-width:4.922;stroke-linecap:round;stroke-linejoin:round;stroke-miterlimit:10;stroke-dasharray:20, 20;stroke-dashoffset:0;stroke-opacity:1"
         transform="matrix(0.13333333,0,0,-0.13333333,0,666.66667)" />
      <path
         id="path59"
         d="m 2610.25,3296.29 c 0,0 -175.83,-299.18 -229.66,-738.72"
         style="fill:none;stroke:#040606;stroke-width:4.922;stroke-linecap:round;stroke-linejoin:round;stroke-miterlimit:10;stroke-dasharray:20, 20;stroke-dashoffset:0;stroke-opacity:1"
         transform="matrix(0.13333333,0,0,-0.13333333,0,666.66667)" />
      <path
         id="path60"
         d="m 1536.41,3620.56 c 0,-9.35 -7.58,-16.94 -16.94,-16.94 -9.36,0 -16.94,7.59 -16.94,16.94 0,9.36 7.58,16.95 16.94,16.95 9.36,0 16.94,-7.59 16.94,-16.95 z"
         style="fill:none;stroke:#040606;stroke-width:10;stroke-linecap:round;stroke-linejoin:round;stroke-miterlimit:10;stroke-dasharray:none;stroke-opacity:1"
         transform="matrix(0.13333333,0,0,-0.13333333,0,666.66667)" />
      <path
         id="path61"
         d="m 2168.38,1217.4 c 1.42,2.78 2.83,5.8 4.22,9.04"
         style="fill:none;stroke:#040606;stroke-width:4.922;stroke-linecap:round;stroke-linejoin:round;stroke-miterlimit:4;stroke-dasharray:none;stroke-opacity:1"
         transform="matrix(0.13333333,0,0,-0.13333333,0,666.66667)" />
      <path
         id="path62"
         d="m 2179.66,1245.12 c 23.6,69.96 41.56,198.17 48.98,264.63 0.34,3.02 -0.82,5.9 -3.06,7.95 -165.85,152.21 -187.28,296.34 -189.15,386.81 -0.11,5.39 -4.73,9.54 -10.13,9.28 -456.68,-21.67 -732.35,-7.77 -826.43,-1.13 -5.47,0.39 -10.05,-3.8 -10.17,-9.28 -2.02,-91.29 -23.94,-234.09 -189.12,-385.68 -2.236,-2.05 -3.4,-4.94 -3.064,-7.95 7.774,-69.55 27.074,-206.72 52.314,-273.99"
         style="fill:none;stroke:#040606;stroke-width:4.922;stroke-linecap:round;stroke-linejoin:round;stroke-miterlimit:4;stroke-dasharray:19.9994, 19.9994;stroke-dashoffset:0;stroke-opacity:1"
         transform="matrix(0.13333333,0,0,-0.13333333,0,666.66667)" />
      <path
         id="path63"
         d="m 1053.56,1226.44 c 1.4,-3.24 2.8,-6.26 4.23,-9.04 0,0 3.34,-0.62 9.8,-1.73"
         style="fill:none;stroke:#040606;stroke-width:4.922;stroke-linecap:round;stroke-linejoin:round;stroke-miterlimit:4;stroke-dasharray:none;stroke-opacity:1"
         transform="matrix(0.13333333,0,0,-0.13333333,0,666.66667)" />
      <path
         id="path64"
         d="m 1087.21,1212.46 c 116.38,-18.36 562.66,-77.59 1061.39,1.73"
         style="fill:none;stroke:#040606;stroke-width:4.922;stroke-linecap:round;stroke-linejoin:round;stroke-miterlimit:4;stroke-dasharray:19.9119, 19.9119;stroke-dashoffset:0;stroke-opacity:1"
         transform="matrix(0.13333333,0,0,-0.13333333,0,666.66667)" />
      <path
         id="path65"
         d="m 2158.5,1215.78 c 3.29,0.54 6.58,1.08 9.88,1.62"
         style="fill:none;stroke:#040606;stroke-width:4.922;stroke-linecap:round;stroke-linejoin:round;stroke-miterlimit:4;stroke-dasharray:none;stroke-opacity:1"
         transform="matrix(0.13333333,0,0,-0.13333333,0,666.66667)" />
      <path
         id="path66"
         d="m 2367.01,1261.13 c -3.08,-1.27 -6.19,-2.48 -9.31,-3.64"
         style="fill:none;stroke:#040606;stroke-width:4.922;stroke-linecap:round;stroke-linejoin:round;stroke-miterlimit:4;stroke-dasharray:none;stroke-opacity:1"
         transform="matrix(0.13333333,0,0,-0.13333333,0,666.66667)" />
      <path
         id="path67"
         d="m 2340.61,1251.62 c -37.72,-11.9 -75.49,-17.47 -97.31,-19.9"
         style="fill:none;stroke:#040606;stroke-width:4.922;stroke-linecap:round;stroke-linejoin:round;stroke-miterlimit:4;stroke-dasharray:18.0682, 18.0682;stroke-dashoffset:0;stroke-opacity:1"
         transform="matrix(0.13333333,0,0,-0.13333333,0,666.66667)" />
      <path
         id="path68"
         d="m 2234.34,1230.8 c -6.32,-0.59 -9.93,-0.8 -9.93,-0.8 1.05,3.1 2.08,6.26 3.1,9.5"
         style="fill:none;stroke:#040606;stroke-width:4.922;stroke-linecap:round;stroke-linejoin:round;stroke-miterlimit:4;stroke-dasharray:none;stroke-opacity:1"
         transform="matrix(0.13333333,0,0,-0.13333333,0,666.66667)" />
      <path
         id="path69"
         d="m 2232.96,1258.02 c 25.24,91.02 40.09,220.59 43.9,256.65"
         style="fill:none;stroke:#040606;stroke-width:4.922;stroke-linecap:round;stroke-linejoin:round;stroke-miterlimit:4;stroke-dasharray:19.3003, 19.3003;stroke-dashoffset:0;stroke-opacity:1"
         transform="matrix(0.13333333,0,0,-0.13333333,0,666.66667)" />
      <path
         id="path70"
         d="m 2277.84,1524.24 1,9.95 -7.61,6.48"
         style="fill:none;stroke:#040606;stroke-width:4.922;stroke-linecap:round;stroke-linejoin:round;stroke-miterlimit:4;stroke-dasharray:none;stroke-opacity:1"
         transform="matrix(0.13333333,0,0,-0.13333333,0,666.66667)" />
      <path
         id="path71"
         d="m 2256.21,1553.81 c -185.3,167.89 -172.3,381.05 -172.14,384.17 l 0.79,15.58 c 0.28,5.69 -4.4,10.37 -10.09,10.09 l -15.57,-0.79 c -591.38,-29.83 -888.08,-0.4 -891.01,-0.09 l -16.35,1.67 c -5.86,0.6 -10.87,-4.17 -10.58,-10.04 l 0.83,-16.42 c 0.16,-3.16 13.5,-221.94 -179.586,-390.79"
         style="fill:none;stroke:#040606;stroke-width:4.922;stroke-linecap:round;stroke-linejoin:round;stroke-miterlimit:4;stroke-dasharray:19.9514, 19.9514;stroke-dashoffset:0;stroke-opacity:1"
         transform="matrix(0.13333333,0,0,-0.13333333,0,666.66667)" />
      <path
         id="path72"
         d="m 954.93,1540.67 -7.617,-6.48 1.003,-9.95"
         style="fill:none;stroke:#040606;stroke-width:4.922;stroke-linecap:round;stroke-linejoin:round;stroke-miterlimit:4;stroke-dasharray:none;stroke-opacity:1"
         transform="matrix(0.13333333,0,0,-0.13333333,0,666.66667)" />
      <path
         id="path73"
         d="m 950.336,1505.08 c 5.238,-47.32 20.598,-171.65 45.5,-256.3"
         style="fill:none;stroke:#040606;stroke-width:4.922;stroke-linecap:round;stroke-linejoin:round;stroke-miterlimit:4;stroke-dasharray:19.3004, 19.3004;stroke-dashoffset:0;stroke-opacity:1"
         transform="matrix(0.13333333,0,0,-0.13333333,0,666.66667)" />
      <path
         id="path74"
         d="m 998.656,1239.5 c 1.016,-3.24 2.044,-6.4 3.094,-9.5 0,0 -3.676,0.31 -9.93,0.97"
         style="fill:none;stroke:#040606;stroke-width:4.922;stroke-linecap:round;stroke-linejoin:round;stroke-miterlimit:4;stroke-dasharray:none;stroke-opacity:1"
         transform="matrix(0.13333333,0,0,-0.13333333,0,666.66667)" />
      <path
         id="path75"
         d="m 973.852,1233.08 c -26.704,3.44 -67.266,10 -97.403,20.83"
         style="fill:none;stroke:#040606;stroke-width:4.922;stroke-linecap:round;stroke-linejoin:round;stroke-miterlimit:4;stroke-dasharray:18.1301, 18.1301;stroke-dashoffset:0;stroke-opacity:1"
         transform="matrix(0.13333333,0,0,-0.13333333,0,666.66667)" />
      <path
         id="path76"
         d="m 867.922,1257.21 c -3.195,1.34 -6.223,2.73 -9.043,4.19"
         style="fill:none;stroke:#040606;stroke-width:4.922;stroke-linecap:round;stroke-linejoin:round;stroke-miterlimit:4;stroke-dasharray:none;stroke-opacity:1"
         transform="matrix(0.13333333,0,0,-0.13333333,0,666.66667)" />
      <path
         id="path77"
         d="m 1042.07,1197.15 c -43.957,68.74 -69.929,327.05 -69.929,327.05 210.709,179.38 193.619,414.99 193.619,414.99 0,0 293.99,-30.3 894.64,0 0,0 -17.09,-235.61 193.62,-414.99 0,0 -25.97,-258.31 -69.93,-327.05"
         style="fill:none;stroke:#040606;stroke-width:10;stroke-linecap:round;stroke-linejoin:round;stroke-miterlimit:10;stroke-dasharray:none;stroke-opacity:1"
         transform="matrix(0.13333333,0,0,-0.13333333,0,666.66667)" />
      <path
         id="path78"
         d="m 2374.75,2972.81 c 0,-288.52 35.44,-1313.53 55.68,-1498.29 20.25,-184.75 -102.68,-251.33 -134.84,-258.15 0,0 -310.74,-63.88 -682.21,-63.88"
         style="fill:none;stroke:#040606;stroke-width:10;stroke-linecap:round;stroke-linejoin:round;stroke-miterlimit:10;stroke-dasharray:none;stroke-opacity:1"
         transform="matrix(0.13333333,0,0,-0.13333333,0,666.66667)" />
      <path
         id="path79"
         d="m 2193.76,3620.71 c 65.87,77.03 -16.68,121.08 -16.68,121.08 87.39,90.98 -70.67,219.15 -70.67,219.15 -433.2,-156.77 -493.03,-470.33 -493.03,-470.33 273.21,0 388.47,149.46 388.47,149.46 h 106.38 c 29.62,0 58.78,-6.62 85.53,-19.36 60.67,-28.9 178.24,-89.29 298.76,-175.44 65.1,-46.52 112.59,-113.58 136.32,-189.98 63.75,-205.21 179.68,-674.24 160.89,-1325.89 -23.4,-810.91 -99.37,-798.81 -205.27,-809.4 0,0 -190.51,-8.56 -264.33,54.42"
         style="fill:none;stroke:#040606;stroke-width:10;stroke-linecap:round;stroke-linejoin:round;stroke-miterlimit:10;stroke-dasharray:none;stroke-opacity:1"
         transform="matrix(0.13333333,0,0,-0.13333333,0,666.66667)" />
      <path
         id="path80"
         d="m 2161.75,3903.28 c 0,0 -348.62,-92.64 -490.95,-410.35"
         style="fill:none;stroke:#040606;stroke-width:10;stroke-linecap:round;stroke-linejoin:round;stroke-miterlimit:10;stroke-dasharray:none;stroke-opacity:1"
         transform="matrix(0.13333333,0,0,-0.13333333,0,666.66667)" />
      <path
         id="path81"
         d="m 2177.08,3741.79 c 0,0 -66.06,-43.29 -131.82,-61.22"
         style="fill:none;stroke:#040606;stroke-width:10;stroke-linecap:round;stroke-linejoin:round;stroke-miterlimit:10;stroke-dasharray:none;stroke-opacity:1"
         transform="matrix(0.13333333,0,0,-0.13333333,0,666.66667)" />
      <path
         id="path82"
         d="m 2001.85,3640.07 c 0,0 -135,0 -239.78,-133.12"
         style="fill:none;stroke:#040606;stroke-width:10;stroke-linecap:round;stroke-linejoin:round;stroke-miterlimit:10;stroke-dasharray:none;stroke-opacity:1"
         transform="matrix(0.13333333,0,0,-0.13333333,0,666.66667)" />
      <path
         id="path83"
         d="m 2106.41,3960.94 c 0,0 -83.09,100.45 -493.03,100.45"
         style="fill:none;stroke:#040606;stroke-width:10;stroke-linecap:round;stroke-linejoin:round;stroke-miterlimit:10;stroke-dasharray:none;stroke-opacity:1"
         transform="matrix(0.13333333,0,0,-0.13333333,0,666.66667)" />
      <path
         id="path84"
         d="m 1962.57,3896.66 c -74.97,25.4 -186.26,46.48 -349.18,46.48 h -0.61 c -162.92,0 -274.21,-21.08 -349.18,-46.48"
         style="fill:none;stroke:#040606;stroke-width:10;stroke-linecap:round;stroke-linejoin:round;stroke-miterlimit:10;stroke-dasharray:none;stroke-opacity:1"
         transform="matrix(0.13333333,0,0,-0.13333333,0,666.66667)" />
      <path
         id="path85"
         d="m 1923.81,3873.47 c -3.13,0.91 -6.33,1.81 -9.6,2.71"
         style="fill:none;stroke:#040606;stroke-width:4.922;stroke-linecap:round;stroke-linejoin:round;stroke-miterlimit:4;stroke-dasharray:none;stroke-opacity:1"
         transform="matrix(0.13333333,0,0,-0.13333333,0,666.66667)" />
      <path
         id="path86"
         d="m 1895.28,3881.04 c -65.43,15.83 -156.46,27.9 -281.93,27.9 h -0.54 c -131.58,0 -225.29,-13.28 -291.32,-30.24"
         style="fill:none;stroke:#040606;stroke-width:4.922;stroke-linecap:round;stroke-linejoin:round;stroke-miterlimit:4;stroke-dasharray:19.5912, 19.5912;stroke-dashoffset:0;stroke-opacity:1"
         transform="matrix(0.13333333,0,0,-0.13333333,0,666.66667)" />
      <path
         id="path87"
         d="m 1311.95,3876.18 c -3.27,-0.9 -6.46,-1.8 -9.59,-2.71"
         style="fill:none;stroke:#040606;stroke-width:4.922;stroke-linecap:round;stroke-linejoin:round;stroke-miterlimit:4;stroke-dasharray:none;stroke-opacity:1"
         transform="matrix(0.13333333,0,0,-0.13333333,0,666.66667)" />
      <path
         id="path88"
         d="m 2327.22,1230 -30.54,-239.691 c 0,0 -303.48,-53.821 -683.3,-53.821"
         style="fill:none;stroke:#040606;stroke-width:10;stroke-linecap:round;stroke-linejoin:round;stroke-miterlimit:10;stroke-dasharray:none;stroke-opacity:1"
         transform="matrix(0.13333333,0,0,-0.13333333,0,666.66667)" />
      <path
         id="path89"
         d="M 2635.33,1127.56 2587.2,992.359 c 0,0 -154.53,-32.57 -283.83,50.511"
         style="fill:none;stroke:#040606;stroke-width:10;stroke-linecap:round;stroke-linejoin:round;stroke-miterlimit:10;stroke-dasharray:none;stroke-opacity:1"
         transform="matrix(0.13333333,0,0,-0.13333333,0,666.66667)" />
      <path
         id="path90"
         d="m 2589.74,3341.11 c 0,0 -177.77,-313.72 -210.9,-627.44"
         style="fill:none;stroke:#040606;stroke-width:10;stroke-linecap:round;stroke-linejoin:round;stroke-miterlimit:10;stroke-dasharray:none;stroke-opacity:1"
         transform="matrix(0.13333333,0,0,-0.13333333,0,666.66667)" />
      <path
         id="path91"
         d="m 1689.75,3620.56 c 0,-9.35 7.59,-16.94 16.94,-16.94 9.36,0 16.95,7.59 16.95,16.94 0,9.36 -7.59,16.95 -16.95,16.95 -9.35,0 -16.94,-7.59 -16.94,-16.95 z"
         style="fill:none;stroke:#040606;stroke-width:10;stroke-linecap:round;stroke-linejoin:round;stroke-miterlimit:10;stroke-dasharray:none;stroke-opacity:1"
         transform="matrix(0.13333333,0,0,-0.13333333,0,666.66667)" />
      <path
         id="path92"
         d="m 1485.6,3067.02 c 0.15,-48.15 0.28,-79.26 0.28,-79.26"
         style="fill:none;stroke:#040606;stroke-width:10;stroke-linecap:round;stroke-linejoin:round;stroke-miterlimit:10;stroke-dasharray:none;stroke-opacity:1"
         transform="matrix(0.13333333,0,0,-0.13333333,0,666.66667)" />
      <path
         id="path93"
         d="m 1519.47,3620.56 c 0,0 -31.69,-58.03 -33.59,-172.32 -1.42,-84.9 -0.73,-242.1 -0.28,-381.22"
         style="fill:none;stroke:#040606;stroke-width:20;stroke-linecap:round;stroke-linejoin:round;stroke-miterlimit:10;stroke-dasharray:none;stroke-opacity:1"
         transform="matrix(0.13333333,0,0,-0.13333333,0,666.66667)" />
      <path
         id="path94"
         d="m 1740.29,3067.02 c -0.16,-48.15 -0.28,-79.26 -0.28,-79.26"
         style="fill:none;stroke:#040606;stroke-width:10;stroke-linecap:round;stroke-linejoin:round;stroke-miterlimit:10;stroke-dasharray:none;stroke-opacity:1"
         transform="matrix(0.13333333,0,0,-0.13333333,0,666.66667)" />
      <path
         id="path95"
         d="m 1706.42,3620.56 c 0,0 31.68,-58.03 33.59,-172.32 1.41,-84.9 0.72,-242.1 0.28,-381.22"
         style="fill:none;stroke:#040606;stroke-width:20;stroke-linecap:round;stroke-linejoin:round;stroke-miterlimit:10;stroke-dasharray:none;stroke-opacity:1"
         transform="matrix(0.13333333,0,0,-0.13333333,0,666.66667)" />
      <path
         id="path96"
         d="m 1562.66,3613.39 c 0,0 41.83,7.17 100.84,0"
         style="fill:none;stroke:#040606;stroke-width:10;stroke-linecap:round;stroke-linejoin:round;stroke-miterlimit:10;stroke-dasharray:none;stroke-opacity:1"
         transform="matrix(0.13333333,0,0,-0.13333333,0,666.66667)" />
      <path
         id="path97"
         d="M 1612.78,4061.39 V 3616.57"
         style="fill:none;stroke:#040606;stroke-width:10;stroke-linecap:round;stroke-linejoin:round;stroke-miterlimit:10;stroke-dasharray:none;stroke-opacity:1"
         transform="matrix(0.13333333,0,0,-0.13333333,0,666.66667)" />
      <path
         id="path98"
         d="m 1188.73,3640.07 c 0,0 1.3,-3.27 4.38,-8.95"
         style="fill:none;stroke:#040606;stroke-width:4.922;stroke-linecap:round;stroke-linejoin:round;stroke-miterlimit:4;stroke-dasharray:none;stroke-opacity:1"
         transform="matrix(0.13333333,0,0,-0.13333333,0,666.66667)" />
      <path
         id="path99"
         d="m 1203.75,3613.93 c 35.18,-50.92 141.02,-158.51 407.44,-158.51 282.36,0 389.06,119.17 419.51,164.7"
         style="fill:none;stroke:#040606;stroke-width:4.922;stroke-linecap:round;stroke-linejoin:round;stroke-miterlimit:4;stroke-dasharray:20.2506, 20.2506;stroke-dashoffset:0;stroke-opacity:1"
         transform="matrix(0.13333333,0,0,-0.13333333,0,666.66667)" />
      <path
         id="path100"
         d="m 2036.13,3628.73 c 3.28,5.57 4.7,8.78 4.7,8.78"
         style="fill:none;stroke:#040606;stroke-width:4.922;stroke-linecap:round;stroke-linejoin:round;stroke-miterlimit:4;stroke-dasharray:none;stroke-opacity:1"
         transform="matrix(0.13333333,0,0,-0.13333333,0,666.66667)" />
      <path
         id="path101"
         d="m 526.563,1182.63 c 0,0 130.097,-74.81 376.57,14.52"
         style="fill:none;stroke:#040606;stroke-width:4.922;stroke-linecap:round;stroke-linejoin:round;stroke-miterlimit:10;stroke-dasharray:20, 20;stroke-dashoffset:0;stroke-opacity:1"
         transform="matrix(0.13333333,0,0,-0.13333333,0,666.66667)" />
      <path
         id="path102"
         d="m 2697.09,1182.63 c 0,0 -130.1,-74.81 -376.57,14.52"
         style="fill:none;stroke:#040606;stroke-width:4.922;stroke-linecap:round;stroke-linejoin:round;stroke-miterlimit:10;stroke-dasharray:20, 20;stroke-dashoffset:0;stroke-opacity:1"
         transform="matrix(0.13333333,0,0,-0.13333333,0,666.66667)" />
      <path
         id="path103"
         d="m 443.754,2368.25 c 0,0 5.258,-182.79 43.164,-320.89"
         style="fill:none;stroke:#040606;stroke-width:10;stroke-linecap:round;stroke-linejoin:round;stroke-miterlimit:10;stroke-dasharray:none;stroke-opacity:1"
         transform="matrix(0.13333333,0,0,-0.13333333,0,666.66667)" />
      <path
         id="path104"
         d="m 2782.49,2368.25 c 0,0 -5.25,-182.79 -43.16,-320.89"
         style="fill:none;stroke:#040606;stroke-width:10;stroke-linecap:round;stroke-linejoin:round;stroke-miterlimit:10;stroke-dasharray:none;stroke-opacity:1"
         transform="matrix(0.13333333,0,0,-0.13333333,0,666.66667)" />
    </g>
  </g>

  </g>
  
  <!-- Arrow: Longueur (vertical left) -->
  <line x1="20" y1="55" x2="20" y2="620" stroke="#0B7285" stroke-width="1.5" marker-start="url(#arr)" marker-end="url(#arr)"/>
  <line x1="15" y1="55" x2="25" y2="55" stroke="#0B7285" stroke-width="1"/>
  <line x1="15" y1="620" x2="25" y2="620" stroke="#0B7285" stroke-width="1"/>
  <text x="10" y="345" font-family="system-ui,sans-serif" font-size="12" fill="#0B7285" transform="rotate(-90,10,345)">Longueur</text>
  
  <!-- Arrow: Largeur poitrine (horizontal bottom) -->
  <line x1="85" y1="690" x2="330" y2="690" stroke="#0B7285" stroke-width="1.5" marker-start="url(#arr)" marker-end="url(#arr)"/>
  <line x1="85" y1="685" x2="85" y2="695" stroke="#0B7285" stroke-width="1"/>
  <line x1="330" y1="685" x2="330" y2="695" stroke="#0B7285" stroke-width="1"/>
  <text x="145" y="710" font-family="system-ui,sans-serif" font-size="12" fill="#0B7285">Largeur poitrine</text>
</svg>