<svg viewBox="0 0 200 250" xmlns="http://www.w3.org/2000/svg">
  <defs>
    <marker id="ah" viewBox="0 0 10 10" refX="5" refY="5" markerWidth="5" markerHeight="5" orient="auto-start-reverse">
      <path d="M 0 0 L 10 5 L 0 10 z" fill="#0B7285"/>
    </marker>
  </defs>
  <!-- Hoodie outline -->
  <path d="M 85 25 C 85 15, 115 15, 115 25 L 120 20 C 125 15, 130 18, 128 25 L 130 30 L 155 50 L 170 75 L 168 85 L 150 80 L 145 95 L 145 195 L 140 210 L 60 210 L 55 195 L 55 95 L 50 80 L 32 85 L 30 75 L 45 50 L 70 30 L 72 25 C 70 18, 75 15, 80 20 Z" fill="#f1f5f9" stroke="#94a3b8" stroke-width="1.5" stroke-linejoin="round"/>
  <!-- Hood strings -->
  <line x1="92" y1="40" x2="88" y2="65" stroke="#94a3b8" stroke-width="1"/>
  <line x1="108" y1="40" x2="112" y2="65" stroke="#94a3b8" stroke-width="1"/>
  <!-- Kangaroo pocket -->
  <path d="M 72 140 Q 72 155, 85 160 L 115 160 Q 128 155, 128 140" fill="none" stroke="#94a3b8" stroke-width="1" stroke-dasharray="3,2"/>
  <!-- Cuffs -->
  <rect x="55" y="195" width="90" height="15" rx="3" fill="none" stroke="#94a3b8" stroke-width="1"/>
  <!-- Arrow: Longueur (vertical left) -->
  <line x1="18" y1="30" x2="18" y2="210" stroke="#0B7285" stroke-width="1" marker-start="url(#ah)" marker-end="url(#ah)"/>
  <line x1="14" y1="30" x2="22" y2="30" stroke="#0B7285" stroke-width="0.8"/>
  <line x1="14" y1="210" x2="22" y2="210" stroke="#0B7285" stroke-width="0.8"/>
  <text x="8" y="125" font-family="system-ui,sans-serif" font-size="9" fill="#0B7285" transform="rotate(-90,8,125)">Longueur</text>
  <!-- Arrow: Largeur poitrine (horizontal) -->
  <line x1="55" y1="230" x2="145" y2="230" stroke="#0B7285" stroke-width="1" marker-start="url(#ah)" marker-end="url(#ah)"/>
  <line x1="55" y1="226" x2="55" y2="234" stroke="#0B7285" stroke-width="0.8"/>
  <line x1="145" y1="226" x2="145" y2="234" stroke="#0B7285" stroke-width="0.8"/>
  <text x="72" y="244" font-family="system-ui,sans-serif" font-size="9" fill="#0B7285">Largeur poitrine</text>
</svg>
