<?xml version="1.0" encoding="UTF-8"?>
<svg id="Layer_2" data-name="Layer 2" xmlns="http://www.w3.org/2000/svg" viewBox="0 0 493.77 353.27">
  <defs>
    <style>
      .cls-1 {
        fill: #52B8C7;
      }

      .cls-1, .cls-2, .cls-3, .cls-4, .cls-5, .cls-6, .cls-7, .cls-8, .cls-9, .cls-10 {
        stroke-width: 0px;
      }

      .cls-2 {
        fill: #cccece;
      }

      .cls-3 {
        fill: #fff;
      }

      .cls-4 {
        fill: #0B7285;
      }

      .cls-5 {
        fill: #878787;
      }

      .cls-6 {
        fill: #a8a8a8;
      }

      .cls-7 {
        fill: #1a1d23;
      }

      .cls-8 {
        fill: #fac670;
      }

      .cls-9 {
        fill: #636363;
      }

      .cls-10 {
        fill: #edf2f4;
      }
    </style>
  </defs>
  <g id="Octopus_9" data-name="Octopus 9">
    <g>
      <path class="cls-10" d="m443.98,0c.22,9.73-2.12,19.98-6.88,28.8-3.11,5.8-7.16,10.87-11.75,15.18-2.41,2.27-4.95,4.34-7.6,6.19-7.73,5.32-16.27,8.86-25.08,10.88-1.1.3-2.22.43-3.33.65-1.09.17-2.28.4-3.3.53-1.98.26-3.93.48-5.8.64-3.78.35-7.32.56-10.68.77-6.72.41-12.46.88-17.43,1.98-5.11,1.12-10.13,2.93-14.91,5.25-4.76,2.37-9.24,5.31-13.33,8.69-4.05,3.42-7.67,7.31-10.75,11.51l-19.22-13.88c3.82-6.16,8.41-11.91,13.66-17.07,5.29-5.11,11.2-9.67,17.65-13.5,5.2-3.04,10.72-5.63,16.51-7.66,1.41-.51,2.83-.96,4.26-1.4,7.44-2.21,14.87-3.26,21.64-4.25,3.4-.49,6.67-.96,9.74-1.53,1.56-.27,3.05-.58,4.51-.91,1.33-.37,2.53-.68,3.77-1.1,4.88-1.7,9.36-4.21,12.89-7.32,3.48-3.17,6.08-6.77,7.4-10.44,1.28-3.71,1.57-7.35.98-11.19l37.04-.83Z"/>
      <path class="cls-2" d="m425.35,43.98c-2.41,2.27-4.95,4.34-7.6,6.19-7.73,5.32-16.27,8.86-25.08,10.88-1.1.3-2.22.43-3.33.65-1.09.17-2.28.4-3.3.53-1.98.26-3.93.48-5.8.64-3.78.35-7.32.56-10.68.77-6.72.41-12.46.88-17.43,1.98-5.11,1.12-10.13,2.93-14.91,5.25-4.76,2.37-9.24,5.31-13.33,8.69-4.05,3.42-7.67,7.31-10.75,11.51l-19.22-13.88c3.82-6.16,8.41-11.91,13.66-17.07,5.51-5.33,10.4-10.66,17.55-13.92,8.71-3.97,18.57-4.84,28.1-4.02,12.54,1.08,24.55,4.96,37.01,6.57,11.89,1.53,24.57.82,35.1-4.77Z"/>
      <path class="cls-10" d="m299.73,63.79c3.76-3.61,8.39-6.09,13.04-7.61,4.67-1.53,9.4-2.19,14.02-2.35,9.26-.25,18.17,1.37,26.76,4.39,8.33,2.96,15.85,6.79,22.94,10.29,7.08,3.51,13.77,6.66,20.24,8.63,12.58,3.81,26.42,3.49,38.78-.31,6.16-1.89,11.93-4.66,16.77-8.1,4.85-3.44,8.7-7.55,11.14-11.82l30.34,21.27c-6.37,9-14.54,15.94-23.22,21.12-8.71,5.18-17.99,8.69-27.46,10.85-9.48,2.15-19.18,2.94-28.9,2.35-2.43-.2-4.86-.28-7.28-.71l-3.63-.55c-.6-.1-1.21-.18-1.81-.3l-1.8-.41-3.61-.84-1.8-.43-1.78-.56-3.55-1.14c-1.19-.38-2.37-.78-3.47-1.23-9.04-3.5-16.81-7.93-23.77-11.9-6.95-3.99-13.22-7.56-19.04-9.97-5.29-2.22-11.32-3.57-16.4-3.66-2.53-.06-4.81.22-6.47.68-1.69.47-2.66,1.05-3.22,1.52l-16.82-19.2Z"/>
      <path class="cls-4" d="m470.54,177.56c-.14.16-.29.31-.44.46-.28.26-.59.52-.92.77-.97.74-2.16,1.38-3.58,1.9-7.45,2.75-15.77-.38-23.27,2-8.06,2.59-15.38,7.78-20.79,14.26-.47.56-.94,1.15-1.4,1.73-.33.43-.65.85-.97,1.29-.07.08-.13.17-.19.25-.3.4-.6.8-.88,1.21-.24.34-.48.7-.73,1.07-.62.89-1.22,1.79-1.79,2.7-.43.67-.82,1.33-1.24,1.99-.1.17-.19.34-.3.5-.32.56-.65,1.11-.97,1.67-1.38,2.37-2.68,4.77-3.95,7.21-.36.67-.7,1.33-1.06,2.01-.41.81-.82,1.6-1.24,2.41-.62,1.2-1.23,2.41-1.86,3.6-.67,1.31-1.36,2.62-2.05,3.92-.35.65-.7,1.31-1.05,1.95-.32.58-.64,1.17-.97,1.75-.13.21-.25.43-.39.66-.51.91-1.03,1.79-1.58,2.68-.23.34-.45.72-.67,1.07-.68,1.11-1.39,2.19-2.12,3.27-16.98,24.94-46.4,37.83-75.84,40.11-.63.06-1.27.09-1.91.14-.53.02-1.04.05-1.57.08-.04,0-.09,0-.13,0-.43.02-.86.02-1.3.04-.78.03-1.57.04-2.35.06t-.04,0h-.01c-.51,0-1,.02-1.51.01-.75,0-1.49,0-2.26-.02-.4-.01-.77,0-1.17-.02-.12,0-.25,0-.37,0-.25,0-.48-.02-.73-.03-.61-.04-1.23-.05-1.84-.09-.46-.02-.93-.04-1.4-.07-.43-.03-.88-.06-1.33-.09-.69-.05-1.37-.11-2.07-.17-.54-.05-1.09-.11-1.65-.18-.71-.08-1.42-.15-2.15-.24-.6-.07-1.19-.15-1.79-.25-.07,0-.16,0-.23-.03-.61-.09-1.2-.17-1.81-.27-.6-.09-1.2-.19-1.79-.28-.35-.07-.72-.13-1.08-.2-.35-.07-.7-.15-1.08-.21-.4-.07-.8-.15-1.23-.24-.84-.15-1.67-.34-2.51-.53-.47-.1-.92-.21-1.38-.32-.23-.07-.46-.12-.68-.17-.02,0-.05-.02-.07-.02-.34-.09-.68-.17-1-.25-.68-.17-1.33-.35-1.99-.53-.1-.02-.18-.05-.26-.08-.39-.1-.76-.21-1.13-.31-.77-.21-1.55-.45-2.32-.7l-.07-.03c-.73-.23-1.45-.47-2.16-.72l-.23-.08c-.41-.11-.81-.27-1.22-.42-.61-.21-1.2-.42-1.8-.66-.13-.04-.26-.09-.39-.15-.78-.3-1.56-.6-2.34-.94-.07-.02-.14-.05-.2-.07-.11-.04-.21-.08-.32-.13-2.46-1.03-4.86-2.16-7.21-3.4-.51-.27-1.03-.55-1.53-.82-.94-.53-1.86-1.06-2.79-1.61-1.71-1.05-3.39-2.16-5.02-3.32-5.94-4.27-11.2-9.37-15.48-15.35-2.73-3.82-4.88-8.18-6.39-12.81-2.31-6.97-3.35-14-1.91-20.88.44-2.19,1.13-4.33,2.11-6.46,3.64-8.02,10.38-14.51,18.21-18.45,7.21-3.65,15.23-5.3,23.34-5.55,3.8-.12,7.63.06,11.4.48,12.75,1.44,25.12,5.49,37.9,6.48,10.69.84,22.45-.8,31.16-7.51,1.55-1.2,3.07-2.47,4.55-3.76,7.72-6.77,14.41-14.63,22.06-21.53,12.45-11.18,28.49-17.87,45.19-19.45,13.41-1.27,27.61,2.85,37.96,11.57,6.48,5.47,16.8,20.43,9.56,28.14Z"/>
      <path class="cls-1" d="m470.1,178.02c-.28.26-.59.52-.92.77-.97.74-2.16,1.38-3.58,1.9-7.45,2.75-15.77-.38-23.27,2-8.06,2.59-15.38,7.78-20.79,14.26-.47.56-.94,1.15-1.4,1.73-.33.43-.65.85-.97,1.29-.07.08-.13.17-.19.25-.3.4-.6.8-.88,1.21-.24.34-.48.7-.73,1.07-.62.89-1.22,1.79-1.79,2.7-.43.67-.82,1.33-1.24,1.99-.1.17-.19.34-.3.5-.32.56-.65,1.11-.97,1.67-1.38,2.37-2.68,4.77-3.95,7.21-.36.67-.7,1.33-1.06,2.01-.41.81-.82,1.6-1.24,2.41-.62,1.2-1.23,2.41-1.86,3.6-.67,1.31-1.36,2.62-2.05,3.92-.35.65-.7,1.31-1.05,1.95-.32.58-.64,1.17-.97,1.75-.13.21-.25.43-.39.66-.51.91-1.03,1.79-1.58,2.68-.23.34-.45.72-.67,1.07-.68,1.11-1.39,2.19-2.12,3.27-16.98,24.94-46.4,37.83-75.84,40.11-.63.06-1.27.09-1.91.14-.53.02-1.04.05-1.57.08-.04,0-.09,0-.13,0-.43.02-.86.02-1.3.04-.78.03-1.57.04-2.35.06t-.04,0h-.01c-.51,0-1,.02-1.51.01-.75,0-1.49,0-2.26-.02-.4-.01-.77,0-1.17-.02-.12,0-.25,0-.37,0-.25,0-.48-.02-.73-.03-.61-.04-1.23-.05-1.84-.09-.46-.02-.93-.04-1.4-.07-.43-.03-.88-.06-1.33-.09-.69-.05-1.37-.11-2.07-.17-.54-.05-1.09-.11-1.65-.18-.71-.08-1.42-.15-2.15-.24-.6-.07-1.19-.15-1.79-.25-.07,0-.16,0-.23-.03-.61-.09-1.2-.17-1.81-.27-.6-.09-1.2-.19-1.79-.28-.35-.07-.72-.13-1.08-.2-.35-.07-.7-.15-1.08-.21-.4-.07-.8-.15-1.23-.24-.84-.15-1.67-.34-2.51-.53-.47-.1-.92-.21-1.38-.32-.23-.07-.46-.12-.68-.17-2.63-3.08-4.72-6.49-5.78-10.41-1.74-6.4-.45-13.18.83-19.68,2.87-14.48,5.99-29.94,8.86-44.43,16.76,4.14,33.7,8.3,50.96,8.6,17.26.29,35.13-3.61,48.8-14.15,8.98-6.94,15.84-16.46,25.25-22.81,17.38-11.74,42.61-9.78,58.26,4Z"/>
      <path class="cls-4" d="m361.79,137.3c0,49.51-26.52,92.84-66.11,116.54-20.37,12.2-44.18,19.21-69.65,19.21-49.21,0-92.3-26.18-116.11-65.37-7.05-11.61-12.41-24.38-15.73-37.94-2.56-10.39-3.9-21.26-3.9-32.43,0-24.29,6.39-47.09,17.56-66.83,6.73-11.88,15.19-22.64,25.05-31.93C157.2,15.6,189.98,1.54,226.03,1.54c20.72,0,40.35,4.64,57.91,12.94,7.4,3.48,14.43,7.63,21.01,12.35,11.29,8.07,21.29,17.83,29.63,28.91,17.08,22.7,27.21,50.95,27.21,81.55Z"/>
      <path class="cls-4" d="m233.86,276.4c-.27,1.74-.63,3.48-1.04,5.19-1.49,6.21-3.59,12.23-6.24,17.96-.19.41-.37.82-.57,1.21-10.66,22.35-29.68,40.26-53.66,48.22-23.81,7.9-51.03,4.78-72.44-8.31-14.22-8.69-25.84-21.43-40.82-28.69-7.58-3.68-16.4-5.41-24.81-4.45-7.81.91-14.12,7.19-22.05,7.74-7.69.54-11.03-4.05-11.96-10.03-1.07-6.88,1.05-15.6,3.32-20.37,5.85-12.2,17.08-21.79,29.84-26.15,15.87-5.42,33.25-5.93,49.18-.85,9.41,2.99,18.64,6.87,28.41,8.31,8.46,1.24,18.29.54,25.53-4.47,10.19-7.06,12.51-19.8,20.02-28.76,7.45-8.92,18.5-14.87,30.11-15.82,14.93-1.22,30.28,5.87,39.03,18.02.1.14.2.27.3.42,8.16,11.63,10.15,26.7,7.84,40.83Z"/>
      <path class="cls-4" d="m112.96,266.42s36.44,3.08-5.1-62.27l18.84-15.77s58.65,54.87,56.76,55.81-48.72,38.79-48.72,38.79l-21.78-16.56Z"/>
      <path class="cls-4" d="m451.74,305.21c-.93,5.99-4.25,10.6-11.96,10.05-7.93-.56-14.24-6.83-22.05-7.74-8.41-.96-17.23.77-24.81,4.45-14.98,7.26-26.6,20-40.82,28.69-21.4,13.09-48.62,16.22-72.44,8.31-23.99-7.95-43.01-25.86-53.65-48.22-.21-.4-.4-.8-.58-1.21-2.64-5.73-4.74-11.75-6.24-17.96-.41-1.69-.75-3.41-1.04-5.14-2.31-14.14-.33-29.23,7.86-40.88.09-.15.19-.28.28-.42,8.74-12.15,24.1-19.24,39.03-18.02,11.61.95,22.66,6.9,30.11,15.82,7.51,8.97,9.83,21.7,20.02,28.76,1.46,1.01,3.03,1.84,4.66,2.52,6.48,2.69,14.12,2.94,20.87,1.95,9.77-1.45,19-5.32,28.41-8.31,5.42-1.73,11-2.82,16.65-3.26,10.94-.9,22.06.53,32.53,4.11,12.76,4.36,23.99,13.94,29.84,26.15,2.27,4.77,4.38,13.46,3.32,20.34Z"/>
      <path class="cls-1" d="m451.74,305.21c-.93,5.99-4.25,10.6-11.96,10.05-7.93-.56-14.24-6.83-22.05-7.74-8.41-.96-17.23.77-24.81,4.45-14.98,7.26-26.6,20-40.82,28.69-21.4,13.09-48.62,16.22-72.44,8.31-23.99-7.95-43.01-25.86-53.65-48.22-10.66,22.35-29.68,40.26-53.66,48.22-23.81,7.9-51.03,4.78-72.44-8.31-14.22-8.69-25.84-21.43-40.82-28.69-7.58-3.68-16.4-5.41-24.81-4.45-7.81.91-14.12,7.19-22.05,7.74-7.69.54-11.03-4.05-11.96-10.03,10-7.06,21.58-11.91,33.69-13.77,26.74-4.1,45.73,6.63,66.63,21.02,18.65,12.83,49.54,8.9,70.03,1.07,19.06-7.27,35.79-20.44,47.53-37.11,2.95-4.17,5.59-8.57,7.87-13.15,2.27,4.56,4.89,8.94,7.83,13.1,11.75,16.69,28.49,29.88,47.58,37.16,20.48,7.83,51.38,11.76,70.02-1.07,20.91-14.39,39.89-25.12,66.63-21.02,12.1,1.85,23.66,6.69,33.66,13.75Z"/>
      <g>
        <ellipse class="cls-3" cx="145.47" cy="123.01" rx="40.67" ry="29.91" transform="translate(19.73 266.14) rotate(-88.92)"/>
        <ellipse class="cls-7" cx="145.47" cy="123.01" rx="29.08" ry="19.51" transform="translate(19.73 266.14) rotate(-88.92)"/>
        <ellipse class="cls-3" cx="156.38" cy="105.96" rx="15.16" ry="10.58" transform="translate(47.48 260.31) rotate(-88.92)"/>
      </g>
      <g>
        <ellipse class="cls-3" cx="230.28" cy="124.62" rx="40.67" ry="29.91" transform="translate(101.32 352.5) rotate(-88.92)"/>
        <ellipse class="cls-7" cx="230.28" cy="124.62" rx="29.08" ry="19.51" transform="translate(101.32 352.49) rotate(-88.92)"/>
        <ellipse class="cls-3" cx="241.18" cy="107.57" rx="15.16" ry="10.58" transform="translate(129.07 346.67) rotate(-88.92)"/>
      </g>
      <g>
        <ellipse class="cls-1" cx="188.15" cy="189.06" rx="22.72" ry="27.94" transform="translate(-47.03 63.22) rotate(-16.99)"/>
        <path class="cls-7" d="m193.06,205.14c-6.02,1.84-13.35-3.98-16.02-12.7-2.66-8.72.17-17.64,6.19-19.48,6.02-1.84,13.35,3.98,16.02,12.7s-.17,17.64-6.19,19.48Z"/>
      </g>
      <path class="cls-1" d="m161.45,200.18c-8.99-5.83-21.81-3.45-32.11-.51-6.61,1.88-12.98,5.58-19.42,8-7.05-11.61-12.41-24.38-15.73-37.94,8.78-.9,17.74-.25,26.27,2.01,16.4,4.35,31.19,14.6,40.99,28.43Z"/>
      <path class="cls-1" d="m156.38,270.98l-.4.79c-.22.11-.44.21-.68.3.37-.35.73-.72,1.07-1.09Z"/>
      <path class="cls-1" d="m361.79,137.3c0,31.06-10.44,59.69-28,82.56-3.77,4.93-25,5.47-23.12,2.52,17.93-28.15,25.97-64.5,23.97-99.37-1.19-20.61-7.26-41.89-16.83-61.4-5.67-11.6-12.59-22.56-20.47-32.38-4.2-5.27-8.68-10.21-13.4-14.75,7.4,3.48,14.43,7.63,21.01,12.35.7.51,1.41,1.01,2.1,1.53.62.47,1.24.93,1.85,1.4.15.12.3.23.44.35.61.48,1.21.96,1.82,1.44.68.54,1.35,1.09,2,1.64.67.56,1.33,1.12,1.98,1.69.49.42.98.85,1.46,1.28.25.21.49.43.74.67,1.15,1.04,2.27,2.09,3.37,3.16.82.79,1.61,1.59,2.4,2.4.47.48.94.98,1.41,1.47.59.62,1.19,1.26,1.77,1.89.59.64,1.16,1.28,1.74,1.94.57.65,1.14,1.31,1.69,1.96,1,1.19,1.99,2.4,2.95,3.62.65.82,1.28,1.64,1.91,2.47,17.08,22.7,27.21,50.95,27.21,81.55Z"/>
      <path class="cls-2" d="m441.65,219.87l-222.62,25.29-1.28-11.7-1.89-17.13,273.41-30.89s3.9,28.52-47.61,34.42Z"/>
      <path class="cls-6" d="m441.65,219.87l-222.62,25.29-1.28-11.7,215.09-24.49c24.84-3.29,49.86-7.52,56.43-23.53,0,0,3.9,28.52-47.61,34.42Z"/>
      <path class="cls-5" d="m214.06,259.6l-20.62-21.2c-3.03-3.12-3.56-7.9-1.28-11.6l15.52-25.18c3.36-5.44,11.03-6.08,15.23-1.26l18.69,21.41c2.61,2.99,3.09,7.29,1.19,10.78l-13.59,24.97c-3.06,5.62-10.68,6.67-15.14,2.08Z"/>
      <path class="cls-9" d="m163.79,253.47l55.48-6.11c5.98-10.72,5.1-21.07-3.42-31.03l-55.48,6.11,3.42,31.03Z"/>
      <path class="cls-4" d="m151.29,280.76c-11.32,6.43-24.57,9.51-37.7,7.46-11.6-1.81-24.6-7.42-32.58-16.32-7.8-8.7-7.27-26.97-5.82-38,3.37-25.85,20.21-48.79,50.05-51.72,19.11-1.87,39.08,7.35,49.48,23.51,18.23,28.32,2.4,60.4-23.43,75.06Z"/>
      <path class="cls-1" d="m161.34,273.75c-9.55,9.25-25.02,16.18-40.42,10.82-10.44-3.62-19.35-11.52-23.59-21.66-.28-.67-.54-1.35-.79-2.04-.69-1.98-1.21-4.01-1.54-6.09-1.05-6.57-.57-16.5,1.89-25.36.07-.31.17-.63.26-.94,2.09-7.08,5.46-13.34,10.31-16.53,5.4-3.52,13.83-4.2,19.16-.58-1.21,4.71-2.45,9.45-3.37,14.23-.06.31-.12.63-.17.94-.9,4.77-1.49,9.6-1.51,14.45-.01,5.68.88,11.5,2.91,16.8.26.68.54,1.36.84,2.03,1.46,3.3,3.41,6.34,5.89,8.98,6.68,7.13,21.17,8.72,30.14,4.95Z"/>
      <path class="cls-9" d="m124.47,257.8l-24.41,2.69-3.53.38-5.51.61c-.58.06-1.16.1-1.74.1-7.86,0-14.6-5.92-15.49-13.91-.94-8.57,5.25-16.28,13.81-17.22l9.28-1.03,3.01-.33,23.17-2.54c-.9,4.77-1.49,9.6-1.51,14.45-.01,5.68.88,11.5,2.91,16.8Z"/>
      <path class="cls-10" d="m317.81,61.62c-24,7.87-47.82,13.51-71.34,16.86-17.27,2.46-34.42,3.68-51.29,3.68-30.27,0-59.67-3.93-87.33-11.68,6.73-11.88,15.19-22.64,25.05-31.93,34.06,7.45,70.82,8.6,108.35,3.25,18.46-2.62,37.2-6.82,56.1-12.56,7.88,9.82,14.8,20.79,20.47,32.38Z"/>
      <path class="cls-2" d="m334.59,55.75c-5.59,2.07-11.19,4.03-16.77,5.87-5.67-11.6-12.59-22.56-20.47-32.38,2.53-.77,5.06-1.57,7.61-2.4.7.51,1.41,1.01,2.1,1.53.62.47,1.24.93,1.85,1.4.15.12.3.23.44.35.61.48,1.21.96,1.82,1.44.68.54,1.35,1.09,2,1.64.67.56,1.33,1.12,1.98,1.69.49.42.98.85,1.46,1.28.25.21.49.43.74.67,1.14,1.03,2.27,2.09,3.37,3.16.82.79,1.61,1.59,2.4,2.4.47.48.94.98,1.41,1.47.59.62,1.19,1.26,1.77,1.89.59.64,1.16,1.28,1.74,1.94.57.65,1.14,1.31,1.69,1.96,1,1.19,1.99,2.4,2.95,3.62.65.82,1.28,1.64,1.91,2.47Z"/>
      <path class="cls-7" d="m255.66,84.55c-18.13,2.1-38.25,10.08-53.87,18.75-2.66-4.82-4.74-9.54-4.54-15.57,21.22-11.47,45.09-16.36,58.41-3.18Z"/>
      <path class="cls-7" d="m118.79,84.55c18.13,2.1,38.25,10.08,53.87,18.75,2.66-4.82,4.74-9.54,4.54-15.57-21.22-11.47-45.09-16.36-58.41-3.18Z"/>
      <path class="cls-8" d="m345.89,123.03c-19.71-9.08-28.85-36.53-28.85-36.53,0,0-11.3,27.46-31,36.53v-.03c19.71,9.08,31,36.53,31,36.53,0,0,9.14-27.46,28.85-36.53v.03Z"/>
    </g>
  </g>
</svg>